<?xml version="1.0" encoding="utf-8"?>
<!-- Generator: Adobe Illustrator 16.0.0, SVG Export Plug-In . SVG Version: 6.00 Build 0)  -->
<!DOCTYPE svg PUBLIC "-//W3C//DTD SVG 1.1//EN" "http://www.w3.org/Graphics/SVG/1.1/DTD/svg11.dtd">
<svg version="1.1" id="Layer_1" xmlns="http://www.w3.org/2000/svg" xmlns:xlink="http://www.w3.org/1999/xlink" x="0px" y="0px"
	 width="280px" height="40.588px" viewBox="0 0 280 40.588" enable-background="new 0 0 280 40.588" xml:space="preserve">
<g>
	<path fill="#AEAFB1" d="M26.425,33.039c-2.329,2.331-5.917,3.28-9.673,3.28c-3.238,0-6.645-0.859-9.149-3.147
		c-1.812-1.643-3.196-4.231-3.196-7.126h5.7c0,1.51,0.692,2.853,1.595,3.756c1.294,1.294,3.371,1.643,5.141,1.643
		c2.112,0,4.141-0.433,5.309-1.643c0.692-0.734,1.21-1.469,1.21-2.931c0-2.246-1.727-3.281-3.629-3.63
		c-2.071-0.385-4.75-0.475-6.778-0.818c-4.231-0.692-7.771-3.456-7.771-8.548c0-2.419,1.083-4.448,2.679-6.043
		c2.028-1.986,5.393-3.238,8.981-3.238c3.28,0,6.47,1.035,8.547,2.979c1.811,1.727,3.063,3.973,3.105,6.519h-5.7
		c-0.042-1.083-0.602-2.245-1.336-3.021c-0.993-1.035-3.022-1.644-4.665-1.644c-1.722,0-3.708,0.392-4.96,1.686
		c-0.65,0.692-1.035,1.468-1.035,2.588c0,1.987,1.294,3.022,3.105,3.323c1.945,0.307,4.666,0.517,6.646,0.776
		c4.581,0.65,8.421,3.629,8.421,8.854C28.972,29.499,27.937,31.528,26.425,33.039z"/>
	<path fill="#AEAFB1" d="M45.272,10.334V35.76h-5.568V10.334h-9.065V5.151h23.698v5.183H45.272z"/>
	<path fill="#AEAFB1" d="M59.025,35.76V5.151h21.802v5.05H64.594v7.127h14.291v5.008H64.594v8.373h16.234v5.05H59.025z"/>
	<path fill="#AEAFB1" d="M104.899,35.76L99.806,24.19h-6.777V35.76h-5.616V5.151h12.911c7.296,0,10.618,4.575,10.618,9.499
		c0,4.099-2.244,7.337-5.609,8.589l5.609,12.521H104.899z M100.324,10.033H92.98v9.149h7.429c3.153,0,4.966-1.644,4.966-4.532
		C105.375,12.188,103.472,10.033,100.324,10.033z"/>
	<path fill="#AEAFB1" d="M117.143,35.76V5.151h5.567v25.341h14.205v5.267H117.143z"/>
	<path fill="#AEAFB1" d="M142.164,35.76V5.151h5.658V35.76H142.164z"/>
	<path fill="#AEAFB1" d="M175.017,35.76l-13.254-21.026V35.76h-5.483V5.151h5.916l13.081,20.724V5.151h5.483V35.76H175.017z"/>
	<path fill="#AEAFB1" d="M208.839,35.76l-0.644-3.365c-0.909,1.77-3.84,3.883-7.688,3.924c-3.538,0.043-6.687-0.859-9.105-3.406
		c-3.197-3.33-3.974-7.428-3.974-12.436c0-5.008,0.65-8.98,3.974-12.304c2.329-2.329,5.825-3.581,9.105-3.581
		c3.757,0,6.996,1.378,9.065,3.497c1.512,1.553,2.637,3.497,2.811,6.169h-5.699c-0.085-1.204-0.692-2.028-1.337-2.805
		c-1.083-1.252-2.763-1.854-4.881-1.854c-1.77,0-3.798,0.776-5.008,2.07c-2.113,2.203-2.372,6.001-2.372,8.807
		c0,2.805,0.301,6.735,2.413,8.938c1.211,1.294,3.197,1.938,4.967,1.938c1.986,0,3.539-0.687,4.574-1.771
		c1.644-1.721,1.987-3.624,1.987-5.953h-7.297v-4.623h12.695V35.76H208.839z"/>
	<path fill="#AEAFB1" d="M239.556,35.76h-6.134L223.279,5.151h5.917l7.422,23.354l7.38-23.354h5.616L239.556,35.76z"/>
	<path fill="#AEAFB1" d="M273.203,32.695c-2.288,2.33-5.477,3.623-8.758,3.623c-3.286,0-6.351-1.076-8.68-3.406
		c-3.323-3.33-3.799-7.428-3.799-12.436c0-5.008,0.476-9.107,3.799-12.43c2.329-2.335,5.394-3.455,8.68-3.455
		c3.281,0,6.47,1.209,8.758,3.539c1.771,1.812,2.679,4.232,2.938,6.646h-5.699c-0.128-1.336-0.604-2.288-1.38-3.232
		c-0.992-1.252-2.72-1.902-4.616-1.902c-1.776,0-3.497,0.735-4.707,2.028c-2.119,2.203-2.119,6.001-2.119,8.807
		c0,2.805,0,6.603,2.119,8.806c1.21,1.294,2.931,2.029,4.707,2.029c1.896,0,3.624-0.686,4.616-1.938
		c0.776-0.951,1.252-2.035,1.38-3.371h5.699C275.882,28.422,274.974,30.883,273.203,32.695z"/>
</g>
<polygon fill="#F57E20" points="226.085,31.829 221.816,36.09 217.543,31.829 221.816,27.549 "/>
</svg>
