<?xml version="1.0" encoding="utf-8"?>
<!-- Generator: Adobe Illustrator 16.0.0, SVG Export Plug-In . SVG Version: 6.00 Build 0)  -->
<!DOCTYPE svg PUBLIC "-//W3C//DTD SVG 1.1//EN" "http://www.w3.org/Graphics/SVG/1.1/DTD/svg11.dtd">
<svg version="1.1" id="Layer_1" xmlns="http://www.w3.org/2000/svg" xmlns:xlink="http://www.w3.org/1999/xlink" x="0px" y="0px"
	 width="158.621px" height="112.644px" viewBox="0 0 158.621 112.644" enable-background="new 0 0 158.621 112.644"
	 xml:space="preserve">
<g>
	<path fill="#E6E7E8" d="M58.623,66.835c0.812,0.021,1.612-0.106,2.397-0.39c0.791-0.277,1.47-0.708,2.045-1.284
		c0.732-0.732,1.137-1.467,1.21-2.202c0.071-0.738-0.162-1.378-0.703-1.919c-0.28-0.28-0.567-0.472-0.865-0.575
		c-0.29-0.101-0.587-0.139-0.892-0.118c-0.307,0.023-0.623,0.091-0.962,0.207c-0.339,0.109-0.7,0.233-1.083,0.369l-2.279,0.897
		c-0.375,0.145-0.773,0.272-1.201,0.387c-0.425,0.112-0.859,0.163-1.302,0.151c-0.434-0.009-0.879-0.106-1.322-0.278
		c-0.446-0.174-0.874-0.466-1.278-0.871c-0.413-0.413-0.717-0.895-0.9-1.426c-0.188-0.537-0.26-1.092-0.212-1.665
		c0.044-0.576,0.204-1.148,0.481-1.715c0.275-0.57,0.667-1.104,1.175-1.612c0.664-0.664,1.405-1.151,2.22-1.464
		c0.815-0.307,1.626-0.458,2.423-0.446l0.154,1.671c-0.664,0.015-1.296,0.133-1.892,0.357c-0.597,0.224-1.154,0.599-1.671,1.116
		c-0.62,0.62-0.977,1.26-1.066,1.922c-0.088,0.667,0.118,1.251,0.626,1.759c0.269,0.269,0.549,0.443,0.841,0.522
		s0.602,0.101,0.921,0.059c0.322-0.039,0.644-0.112,0.962-0.218c0.322-0.109,0.641-0.228,0.959-0.363l2.244-0.897
		c0.452-0.18,0.903-0.325,1.361-0.428c0.455-0.106,0.9-0.145,1.334-0.118c0.434,0.026,0.865,0.139,1.293,0.331
		c0.425,0.189,0.844,0.49,1.249,0.894c0.439,0.44,0.764,0.936,0.974,1.494c0.204,0.558,0.289,1.139,0.25,1.756
		c-0.038,0.617-0.207,1.234-0.507,1.86c-0.298,0.623-0.741,1.23-1.326,1.815c-0.776,0.776-1.644,1.349-2.601,1.721
		s-1.931,0.549-2.922,0.525L58.623,66.835z"/>
	<path fill="#E6E7E8" d="M63.05,53.085l-1.216,1.216l-1.048-1.048l1.199-1.37l-2.128-2.465l1.166-1.166l2.296,2.296l2.211-2.211
		l1.133,1.134l-2.211,2.211l4.561,4.561c0.505,0.505,0.989,0.806,1.453,0.897c0.46,0.089,0.93-0.103,1.402-0.576
		c0.147-0.147,0.28-0.328,0.404-0.54c0.121-0.215,0.224-0.419,0.304-0.611l1.317,0.779c-0.145,0.304-0.319,0.62-0.522,0.947
		c-0.204,0.322-0.434,0.617-0.694,0.877c-0.437,0.437-0.874,0.738-1.311,0.903c-0.434,0.162-0.862,0.218-1.281,0.171
		c-0.422-0.05-0.841-0.209-1.261-0.469c-0.416-0.257-0.826-0.59-1.231-0.995L63.05,53.085z"/>
	<path fill="#E6E7E8" d="M70.737,51.378c-0.676-0.676-1.178-1.384-1.502-2.128c-0.331-0.744-0.508-1.476-0.535-2.188
		c-0.029-0.714,0.08-1.39,0.319-2.031c0.245-0.635,0.602-1.187,1.074-1.659c0.52-0.52,1.072-0.894,1.662-1.125
		c0.593-0.233,1.195-0.316,1.807-0.254c0.614,0.059,1.231,0.257,1.851,0.582c0.623,0.328,1.222,0.785,1.807,1.37
		c0.307,0.307,0.543,0.573,0.711,0.812l-5.541,5.541c0.944,0.833,1.924,1.264,2.931,1.29c1.009,0.03,1.904-0.351,2.692-1.139
		c0.396-0.396,0.7-0.818,0.913-1.267c0.215-0.452,0.38-0.924,0.493-1.42l1.402,0.422c-0.136,0.584-0.34,1.184-0.611,1.792
		c-0.266,0.608-0.685,1.193-1.249,1.757c-0.552,0.552-1.163,0.968-1.845,1.249c-0.673,0.283-1.37,0.419-2.09,0.407
		c-0.72-0.012-1.449-0.18-2.181-0.511C72.116,52.556,71.41,52.052,70.737,51.378z M75.853,45.011
		c-0.847-0.847-1.668-1.314-2.468-1.405c-0.797-0.088-1.517,0.189-2.158,0.83c-0.295,0.295-0.517,0.629-0.662,1.015
		c-0.147,0.378-0.215,0.789-0.209,1.225c0.006,0.431,0.098,0.877,0.277,1.34c0.18,0.463,0.458,0.924,0.83,1.384L75.853,45.011z"/>
	<path fill="#E6E7E8" d="M75.599,38.269l1.148-1.148l1.606,1.37l0.05-0.05c-0.236-0.803-0.307-1.553-0.209-2.258
		c0.095-0.703,0.381-1.29,0.853-1.762c0.328-0.328,0.677-0.564,1.048-0.711l0.942,1.485c-0.178,0.094-0.337,0.183-0.47,0.274
		c-0.136,0.088-0.289,0.218-0.457,0.387c-0.349,0.348-0.57,0.853-0.668,1.511c-0.094,0.662,0.068,1.479,0.481,2.459l5.27,5.27
		l-1.385,1.384L75.599,38.269z"/>
	<path fill="#E6E7E8" d="M77.645,28.589l1.384-1.385l10.474,10.474c0.225,0.225,0.422,0.346,0.591,0.354
		c0.168,0.009,0.304-0.033,0.407-0.136c0.044-0.044,0.085-0.086,0.124-0.124c0.041-0.042,0.088-0.112,0.147-0.213l1.23,0.859
		c-0.047,0.136-0.117,0.277-0.218,0.425c-0.104,0.145-0.251,0.316-0.44,0.505c-0.531,0.531-1.068,0.75-1.605,0.661
		c-0.54-0.091-1.116-0.443-1.721-1.048L77.645,28.589z"/>
	<path fill="#E6E7E8" d="M84.789,25.702c-0.269,0.269-0.585,0.413-0.937,0.428c-0.354,0.018-0.661-0.101-0.921-0.36
		c-0.271-0.271-0.396-0.584-0.372-0.933c0.021-0.346,0.172-0.656,0.44-0.924c0.271-0.271,0.578-0.419,0.927-0.442
		c0.349-0.024,0.658,0.103,0.93,0.375c0.26,0.26,0.381,0.564,0.363,0.918C85.202,25.118,85.061,25.431,84.789,25.702z
		 M85.769,28.099l1.385-1.384l8.209,8.209l-1.384,1.384L85.769,28.099z"/>
	<path fill="#E6E7E8" d="M89.925,23.943l1.148-1.148l1.299,1.063l0.051-0.05c0.003-0.782,0.088-1.529,0.257-2.229
		c0.165-0.696,0.54-1.331,1.115-1.907c0.865-0.865,1.769-1.231,2.71-1.092c0.939,0.142,1.939,0.741,2.996,1.798l5.205,5.204
		l-1.388,1.388L98.3,21.95c-0.776-0.776-1.458-1.21-2.049-1.311c-0.59-0.095-1.157,0.13-1.697,0.67
		c-0.428,0.428-0.699,0.912-0.812,1.449c-0.112,0.543-0.168,1.231-0.168,2.063l5.944,5.945l-1.384,1.385L89.925,23.943z"/>
	<path fill="#E6E7E8" d="M108.322,25.112c-0.352-0.351-0.576-0.788-0.677-1.32c-0.103-0.528-0.094-1.11,0.016-1.738l-0.068-0.068
		c-0.325,0.077-0.667,0.077-1.03-0.003c-0.36-0.077-0.702-0.277-1.03-0.605c-0.349-0.348-0.555-0.75-0.623-1.201
		c-0.067-0.446-0.067-0.854,0-1.216l-0.067-0.068c-0.496,0.047-1.042-0.009-1.639-0.168c-0.6-0.156-1.146-0.484-1.639-0.977
		c-0.451-0.452-0.773-0.939-0.974-1.464c-0.198-0.522-0.28-1.054-0.251-1.585c0.026-0.534,0.162-1.06,0.404-1.573
		s0.572-0.975,0.989-1.391c0.227-0.228,0.454-0.419,0.69-0.579c0.239-0.156,0.464-0.286,0.676-0.387l2.854-2.854l1.066,1.066
		l-1.689,1.688c0.381-0.003,0.783,0.08,1.208,0.245c0.422,0.163,0.809,0.419,1.157,0.768c0.437,0.437,0.756,0.915,0.956,1.429
		c0.192,0.511,0.277,1.021,0.248,1.535c-0.023,0.514-0.153,1.021-0.384,1.523c-0.233,0.499-0.558,0.959-0.974,1.375
		c-0.201,0.201-0.435,0.387-0.7,0.546c-0.266,0.166-0.54,0.298-0.817,0.398c-0.023,0.272-0.009,0.535,0.041,0.786
		c0.048,0.254,0.189,0.496,0.41,0.717c0.263,0.263,0.579,0.372,0.948,0.339c0.371-0.036,0.841-0.333,1.402-0.895l1.588-1.588
		c0.956-0.957,1.833-1.521,2.618-1.692c0.788-0.168,1.526,0.092,2.214,0.779c0.384,0.384,0.652,0.842,0.803,1.376
		s0.175,1.113,0.074,1.733c-0.101,0.62-0.331,1.263-0.69,1.924c-0.363,0.665-0.862,1.317-1.506,1.96
		c-0.505,0.504-1.016,0.921-1.529,1.24c-0.511,0.322-1.013,0.534-1.499,0.644c-0.49,0.106-0.957,0.106-1.388,0
		C109.077,25.702,108.679,25.469,108.322,25.112z M106.615,16.616c0.236-0.236,0.414-0.508,0.532-0.803
		c0.117-0.301,0.174-0.617,0.168-0.948c-0.006-0.331-0.086-0.664-0.236-0.998c-0.153-0.331-0.381-0.652-0.682-0.954
		c-0.611-0.611-1.249-0.912-1.919-0.903c-0.67,0.003-1.249,0.251-1.733,0.735c-0.483,0.484-0.729,1.06-0.731,1.729
		c-0.009,0.67,0.292,1.308,0.903,1.919c0.301,0.301,0.62,0.531,0.953,0.682c0.331,0.153,0.664,0.233,0.995,0.239
		c0.333,0.003,0.649-0.053,0.947-0.168C106.11,17.026,106.38,16.852,106.615,16.616z M109.353,23.709
		c0.437,0.437,0.997,0.573,1.68,0.411c0.682-0.163,1.393-0.614,2.137-1.358c0.393-0.393,0.705-0.8,0.93-1.213
		c0.225-0.419,0.375-0.818,0.449-1.193c0.07-0.377,0.067-0.729-0.012-1.057c-0.077-0.325-0.225-0.596-0.44-0.812
		c-0.381-0.38-0.785-0.507-1.213-0.369c-0.428,0.133-0.912,0.469-1.455,1.012l-1.417,1.417c-0.16,0.16-0.34,0.322-0.541,0.493
		c-0.203,0.168-0.425,0.313-0.661,0.437c-0.079,0.504-0.064,0.944,0.036,1.316C108.944,23.167,109.113,23.471,109.353,23.709z"/>
	<path fill="#E6E7E8" d="M75.771,84.892c-0.328-0.328-0.493-0.688-0.49-1.08c-0.003-0.393,0.139-0.735,0.419-1.016
		c0.271-0.271,0.605-0.404,0.998-0.401c0.393-0.003,0.756,0.159,1.083,0.487c0.304,0.304,0.455,0.655,0.452,1.048
		c0.003,0.393-0.133,0.724-0.404,0.995c-0.281,0.28-0.62,0.425-1.013,0.422C76.423,85.35,76.074,85.196,75.771,84.892z"/>
	<path fill="#E6E7E8" d="M67.425,72.763l1.502-1.503l7.755,4.207c0.865,0.463,1.656,0.894,2.371,1.308
		c0.714,0.413,1.505,0.838,2.374,1.275l0.067-0.068c-0.448-0.856-0.877-1.644-1.284-2.364s-0.844-1.505-1.316-2.362l-4.207-7.754
		l1.438-1.438l7.566,14.598l-1.639,1.638L67.425,72.763z"/>
	<path fill="#E6E7E8" d="M82.374,68.896c-0.892-0.892-1.567-1.815-2.028-2.772c-0.46-0.957-0.72-1.901-0.776-2.837
		c-0.056-0.936,0.083-1.836,0.423-2.701c0.336-0.868,0.861-1.659,1.57-2.368c0.676-0.676,1.405-1.128,2.188-1.361
		c0.785-0.23,1.52-0.328,2.202-0.295l0.103,1.691c-0.607-0.023-1.181,0.047-1.724,0.219c-0.54,0.168-1.045,0.49-1.518,0.962
		c-0.531,0.531-0.903,1.116-1.124,1.75c-0.222,0.634-0.29,1.299-0.204,1.993c0.083,0.69,0.319,1.399,0.703,2.119
		c0.383,0.721,0.918,1.426,1.603,2.111c0.699,0.7,1.411,1.246,2.131,1.641c0.721,0.396,1.426,0.641,2.111,0.741
		c0.685,0.1,1.349,0.05,1.983-0.16c0.638-0.207,1.223-0.579,1.751-1.107c0.54-0.54,0.903-1.116,1.089-1.733
		c0.186-0.611,0.26-1.299,0.228-2.051l1.656,0.068c0.067,0.947-0.036,1.836-0.305,2.671c-0.271,0.833-0.762,1.6-1.473,2.312
		c-0.697,0.696-1.47,1.216-2.32,1.547s-1.739,0.469-2.66,0.416c-0.924-0.062-1.862-0.322-2.821-0.797
		C84.204,70.483,83.274,69.796,82.374,68.896z"/>
</g>
</svg>
