<?xml version="1.0" encoding="utf-8"?>
<!-- Generator: Adobe Illustrator 16.0.0, SVG Export Plug-In . SVG Version: 6.00 Build 0)  -->
<!DOCTYPE svg PUBLIC "-//W3C//DTD SVG 1.1//EN" "http://www.w3.org/Graphics/SVG/1.1/DTD/svg11.dtd">
<svg version="1.1" id="Layer_1" xmlns="http://www.w3.org/2000/svg" xmlns:xlink="http://www.w3.org/1999/xlink" x="0px" y="0px"
	 width="220px" height="26.001px" viewBox="0 0 220 26.001" enable-background="new 0 0 220 26.001" xml:space="preserve">
<g>
	<polygon fill="#F57E20" points="174.959,13.9 170.983,17.865 167.002,13.9 170.983,9.92 	"/>
	<path fill="#E6E7E8" d="M5.07,15.973c0.524,3.445,1.621,5.246,5.126,5.246c2.841,0,4.289-1.365,4.289-3.102
		c0-1.744-0.728-2.518-5.506-4.025c-4.397-1.389-6.113-3.038-6.113-5.822c0-2.869,2.38-5.474,6.546-5.474
		c3.597,0,6.603,1.765,7.214,5.597l-2.896,0.633c-0.464-2-1.505-3.502-4.317-3.502c-2.489,0-3.649,1.245-3.649,2.746
		c0,1.393,0.644,1.973,5.098,3.449c5.186,1.736,6.49,3.241,6.49,6.223c0,3.301-2.58,5.996-7.183,5.996
		c-4.777,0-7.559-2.523-8.139-7.357L5.07,15.973z"/>
	<path fill="#E6E7E8" d="M27.989,5.928H21.85V3.231h15.205v2.696h-6.17v17.576h-2.896V5.928z"/>
	<path fill="#E6E7E8" d="M44.301,3.231h12.396v2.696h-9.499v5.875h8.688v2.58h-8.688v6.455h9.499v2.666H44.301V3.231z"/>
	<path fill="#E6E7E8" d="M65.542,3.231h7.931c4.086,0,6.835,2.145,6.835,6.174c0,3.558-1.821,5.21-4.75,5.847l4.434,8.252h-3.186
		l-4.282-8.021h-4.085v8.021h-2.896V3.231z M73.242,12.906c2.316,0,4.145-0.928,4.145-3.501c0-2.581-1.708-3.54-4.169-3.54h-4.778
		v7.041H73.242z"/>
	<path fill="#E6E7E8" d="M88.289,3.231h2.896v17.606h8.655v2.666H88.289V3.231z"/>
	<path fill="#E6E7E8" d="M107.958,3.231h2.894v20.272h-2.894V3.231z"/>
	<path fill="#E6E7E8" d="M120.856,3.231h2.98l8.715,15.116h0.066V3.231h2.922v20.272h-2.922l-8.809-15.111h-0.055v15.111h-2.898
		V3.231z"/>
	<path fill="#E6E7E8" d="M144.239,13.139c0-6.869,4.23-10.343,8.629-10.343c4.023,0,7.035,2.692,7.676,6.75l-2.953,0.521
		c-0.496-2.434-1.797-4.543-4.691-4.543c-3.016,0-5.648,2.426-5.648,7.615c0,5.59,2.52,8.08,5.648,8.08
		c3.066,0,4.945-1.941,4.926-5.274h-4.668v-2.573h7.504v2.197c0,5.326-3.25,8.369-7.762,8.369
		C148.293,23.938,144.239,20.867,144.239,13.139z"/>
	<path fill="#E6E7E8" d="M178.684,3.231h3.07l5.641,16.306h0.062l5.5-16.306H196l-7.066,20.272h-3.066L178.684,3.231z"/>
	<path fill="#E6E7E8" d="M200.711,13.195c0-6.982,4.23-10.399,8.66-10.399c4.293,0,7.301,2.812,7.82,7.157l-2.949,0.489
		c-0.41-2.577-1.684-4.919-4.871-4.919c-3.012,0-5.609,2.37-5.609,7.672c0,5.617,2.488,8.023,5.609,8.023
		c3.273,0,4.461-2.49,4.75-5.45l3.098,0.495c-0.379,4.693-3.301,7.674-7.848,7.674C204.942,23.938,200.711,20.957,200.711,13.195z"
		/>
</g>
</svg>
