<?xml version="1.0" encoding="UTF-8" standalone="no"?>
<!-- Created with Inkscape (http://www.inkscape.org/) -->

<svg
   xmlns:dc="http://purl.org/dc/elements/1.1/"
   xmlns:cc="http://creativecommons.org/ns#"
   xmlns:rdf="http://www.w3.org/1999/02/22-rdf-syntax-ns#"
   xmlns:svg="http://www.w3.org/2000/svg"
   xmlns="http://www.w3.org/2000/svg"
   xmlns:inkscape="http://www.inkscape.org/namespaces/inkscape"
   version="1.1"
   width="217.35001"
   height="47.6875"
   id="svg2"
   xml:space="preserve"><metadata
     id="metadata8"><rdf:RDF><cc:Work
         rdf:about=""><dc:format>image/svg+xml</dc:format><dc:type
           rdf:resource="http://purl.org/dc/dcmitype/StillImage" /></cc:Work></rdf:RDF></metadata><defs
     id="defs6"><clipPath
       id="clipPath18"><path
         d="m 0,0 1738.78,0 0,381 L 0,381 0,0 z"
         inkscape:connector-curvature="0"
         id="path20" /></clipPath></defs><g
     transform="matrix(1.25,0,0,-1.25,0,47.6875)"
     id="g10"><g
       transform="scale(0.1,0.1)"
       id="g12"><g
         id="g14"><g
           clip-path="url(#clipPath18)"
           id="g16"><path
             d="m 1353.58,84.2773 -33.58,33.5467 33.26,33.231 33.51,-33.543 -33.19,-33.2347"
             inkscape:connector-curvature="0"
             id="path22"
             class="dot"
             style="fill:#f46e16;fill-opacity:1;fill-rule:nonzero;stroke:none" /><path
             d="M 150.543,111.496 C 135.004,95.5664 111.098,88.8008 84.8242,88.8008 c -25.082,0 -48.168,5.9765 -65.3164,22.6952 C 7.15234,123.449 0,140.559 0,157.66 l 33.8633,0 c 0.3828,-13.918 6.7617,-24.269 16.3164,-31.457 9.1601,-6.758 23.4805,-9.125 36.2226,-9.125 13.9567,0 26.6997,2.367 37.0427,11.125 5.586,4.367 9.95,12.746 9.95,21.91 0,15.141 -10.735,25.875 -31.457,28.668 l -45.3872,5.977 c -30.2813,4.758 -49.39846,23.48 -49.39846,54.152 0,15.535 7.59376,30.285 16.75786,39.406 13.1289,13.524 34.2148,22.34 59.3046,22.34 26.7032,0 50.5742,-8.375 64.1052,-25.492 8.77,-10.769 14.356,-22.332 14.356,-38.648 l -33.86,0 c -0.394,10.339 -5.55,19.933 -11.527,25.086 -8.379,7.593 -19.5078,10.738 -33.0742,10.738 -7.9414,0 -13.9218,0 -23.4726,-3.969 -12.7461,-5.152 -20.2969,-15.93 -20.2969,-27.062 0,-16.707 10.3438,-23.907 27.0547,-26.309 11.1719,-1.57 27.0977,-3.145 48.566,-6.762 28.672,-4.761 51.364,-25.484 51.364,-55.722 0,-17.504 -6.371,-31.071 -15.887,-41.02"
             inkscape:connector-curvature="0"
             id="path24"
             style="fill:#d3d2d2;fill-opacity:1;fill-rule:nonzero;stroke:none" /><path
             d="m 274.812,91.1914 c -43.41,0 -55.371,27.4606 -55.371,54.5546 l 0,120.613 -39.007,0 0,29.102 39.007,0 0,51.359 33.864,7.95 0,-59.309 59.73,0 0,-29.102 -59.73,0 0,-116.636 c 0,-19.508 8.375,-27.457 27.093,-27.457 14.313,0 34.606,3.546 34.606,3.546 l 0,-29.0347 c -9.125,-2.4296 -21.469,-5.5859 -40.192,-5.5859"
             inkscape:connector-curvature="0"
             id="path26"
             style="fill:#d3d2d2;fill-opacity:1;fill-rule:nonzero;stroke:none" /><path
             d="m 463.586,253.617 c -8.383,11.172 -21.902,18.328 -39.832,18.328 -36.621,0 -54.551,-29.843 -55.34,-59.304 l 107.516,0 c 0,15.097 -4.399,30.246 -12.344,40.976 z m 46.566,-70.078 -142.519,0 c 0,-18.285 7.156,-38.227 19.5,-50.543 9.16,-9.156 21.519,-14.344 37.051,-14.344 15.882,0 29.054,4.407 37.398,13.133 5.586,5.582 9.156,11.168 11.949,21.903 l 33.035,0 c -2.793,-19.899 -14.707,-38.618 -31.019,-49.743 -14.359,-9.5973 -32.254,-15.1442 -51.363,-15.1442 -28.278,0 -51.407,11.9142 -66.942,30.2422 -16.711,19.508 -25.051,46.211 -25.051,74.879 0,24.305 4.375,45.777 15.536,64.496 14.32,24.301 40.98,42.238 76.027,42.238 25.914,0 46.59,-9.988 61.344,-25.918 16.312,-17.898 25.879,-43.769 25.484,-70.867 l -0.43,-20.332"
             inkscape:connector-curvature="0"
             id="path28"
             style="fill:#d3d2d2;fill-opacity:1;fill-rule:nonzero;stroke:none" /><path
             d="m 645.598,264.004 c -15.934,0 -29.071,-7.164 -38.231,-15.934 -16.32,-15.531 -18.324,-43.41 -18.324,-64.531 l 0,-89.5859 -33.434,0 0,201.5079 29.852,0 2.793,-35.469 c 10.344,24.696 34.652,36.649 60.137,36.649 5.14,0 10.726,-0.391 15.925,-1.18 l 0,-33.035 c -5.98,1.183 -12.754,1.578 -18.718,1.578"
             inkscape:connector-curvature="0"
             id="path30"
             style="fill:#d3d2d2;fill-opacity:1;fill-rule:nonzero;stroke:none" /><path
             d="m 745.559,91.5938 c -29.5,0 -42.239,17.5002 -42.239,49.3552 l 0,240.528 33.864,0 0,-238.524 c 0,-13.527 4.359,-20.687 18.324,-20.687 11.137,0 13.926,0.398 13.926,0.398 l 0,-28.7109 c 0,0 -7.547,-2.3593 -23.875,-2.3593"
             inkscape:connector-curvature="0"
             id="path32"
             style="fill:#d3d2d2;fill-opacity:1;fill-rule:nonzero;stroke:none" /><path
             d="m 808.484,93.9531 0,201.5079 34.606,0 0,-201.5079 -34.606,0 z m -2.394,247.6799 0,39.844 39.398,0 0,-39.844 -39.398,0"
             inkscape:connector-curvature="0"
             id="path34"
             style="fill:#d3d2d2;fill-opacity:1;fill-rule:nonzero;stroke:none" /><path
             d="m 1034.28,93.9531 0,127.8089 c 0,30.285 -12.35,48.218 -44.206,48.218 -19.512,0 -35.078,-12.742 -43.808,-31.07 -6.77,-14.707 -7.157,-35.828 -7.157,-51.359 l 0,-93.5979 -33.843,0 0,201.5079 29.437,0 2.824,-30.273 c 10.309,23.117 38.239,35.468 60.887,35.468 45.766,0 69.686,-27.488 69.686,-74.094 l 0,-132.6089 -33.82,0"
             inkscape:connector-curvature="0"
             id="path36"
             style="fill:#d3d2d2;fill-opacity:1;fill-rule:nonzero;stroke:none" /><path
             d="m 1196.38,273.168 c -27.53,0 -45.86,-18.723 -45.86,-44.207 0,-25.484 17.16,-44.992 45.86,-44.992 27.45,0 45.78,19.508 45.78,44.992 0,25.484 -17.14,44.207 -45.78,44.207 z m 15.5,-177.1992 -46.56,0 c -13.54,-4.375 -25.49,-16.3282 -25.49,-31.8672 0,-9.168 3.14,-15.9258 8.34,-21.1211 13.13,-13.1367 36.27,-13.918 53.72,-13.918 17.15,0 42.24,1.5742 54.98,14.3164 5.19,5.1875 8.34,11.9531 8.34,20.7227 0,29.8515 -29.03,31.8672 -53.33,31.8672 z m 69.3,-72.4805 C 1261.67,4.36719 1228.25,0 1199.92,0 c -26.65,0 -56.95,3.96484 -76.45,23.4883 -8.33,8.3672 -14.3,19.8906 -14.3,35.8594 0,21.0742 12.73,36.6211 28.62,44.5973 -13.53,5.149 -23.44,18.321 -23.44,33.821 0,17.929 11.48,31.855 26.66,39.007 -14.71,13.137 -23.12,33.075 -23.12,52.188 0,21.902 7.54,37.012 19.12,48.965 13.91,14.355 33.03,22.73 59.77,22.73 19.1,0 33.81,-4.406 46.17,-11.953 6.76,17.891 22.26,28.231 41.37,28.231 3.22,0 6.77,-0.387 9.99,-0.782 l 0,-27.449 c -1.96,0.391 -4.8,0.391 -7.55,0.391 -13.13,0 -22.73,-7.16 -24.7,-18.332 8.35,-10.77 13.13,-23.907 13.13,-41.801 0,-19.113 -7.15,-35.824 -18.32,-48.176 -13.13,-14.355 -33.43,-23.91 -60.09,-23.91 -13.61,0 -21.15,1.184 -33.9,5.586 -7.54,-2.402 -17.06,-8.336 -17.06,-17.934 0,-17.504 17.45,-19.898 30.19,-19.898 l 39.87,0 c 23.85,0 50.59,-4.793 66.47,-21.082 9.6,-9.5939 15.97,-22.7345 15.97,-39.4454 0,-17.5 -7.62,-31.0352 -17.14,-40.6133"
             inkscape:connector-curvature="0"
             id="path38"
             style="fill:#d3d2d2;fill-opacity:1;fill-rule:nonzero;stroke:none" /><path
             d="m 1481.5,93.9531 -36.65,0 -74.48,201.5079 35.47,0 58.13,-161.672 56.15,161.672 34.22,0 -72.84,-201.5079"
             inkscape:connector-curvature="0"
             id="path40"
             style="fill:#d3d2d2;fill-opacity:1;fill-rule:nonzero;stroke:none" /><path
             d="m 1715.27,110.703 c -14.33,-13.9257 -33.43,-21.9022 -58.14,-21.9022 -36.17,0 -59.29,16.7192 -73.62,37.8322 -10.77,15.926 -16.74,37.797 -16.74,68.074 0,30.285 5.97,52.148 16.74,68.117 14.33,21.078 37.05,37.832 73.24,37.832 23.9,0 43.41,-7.984 57.33,-21.554 13.53,-13.129 22.34,-29.848 23.91,-51.754 l -34.21,0 c -1.65,13.961 -6.77,23.914 -14.39,31.461 -7.95,7.55 -19.51,12.347 -32.64,12.347 -15.5,0 -26.28,-5.578 -35,-13.133 -15.97,-13.527 -20.29,-38.613 -20.29,-63.316 0,-24.691 4.32,-49.785 20.29,-63.309 8.72,-7.558 19.5,-13.144 35,-13.144 13.92,0 26.26,5.195 34.29,13.531 7.16,7.59 11.88,16.754 13.53,29.887 l 34.21,0 c -1.57,-21.512 -9.91,-37.832 -23.51,-50.969"
             inkscape:connector-curvature="0"
             id="path42"
             style="fill:#d3d2d2;fill-opacity:1;fill-rule:nonzero;stroke:none" /></g></g></g></g></svg>