<?xml version="1.0" encoding="utf-8"?>
<!-- Generator: Adobe Illustrator 16.0.0, SVG Export Plug-In . SVG Version: 6.00 Build 0)  -->
<!DOCTYPE svg PUBLIC "-//W3C//DTD SVG 1.1//EN" "http://www.w3.org/Graphics/SVG/1.1/DTD/svg11.dtd">
<svg version="1.1" id="Layer_1" xmlns="http://www.w3.org/2000/svg" xmlns:xlink="http://www.w3.org/1999/xlink" x="0px" y="0px"
	 width="197px" height="62px" viewBox="120.5 171.5 197 62" enable-background="new 120.5 171.5 197 62" xml:space="preserve">
<g>
	<path fill="#E6E7E8" d="M153.139,211.977c-1.562,1.53-3.985,2.263-6.407,2.263c-2.741,0-4.94-0.765-6.471-2.167
		c-1.435-1.339-2.422-3.283-2.422-5.419h2.964c0,1.339,0.669,2.677,1.594,3.57c1.02,0.988,2.741,1.403,4.335,1.403
		c1.721,0,3.188-0.351,4.208-1.307c0.701-0.638,1.147-1.435,1.147-2.646c0-1.753-1.115-3.22-3.793-3.634l-3.57-0.542
		c-3.378-0.51-6.024-2.391-6.024-5.993c0-1.689,0.765-3.315,1.977-4.462c1.562-1.466,3.57-2.231,5.929-2.231
		c2.199,0,4.367,0.733,5.865,2.167c1.371,1.307,2.104,2.933,2.167,4.845h-2.964c-0.064-1.116-0.479-2.104-1.116-2.837
		c-0.861-0.988-2.231-1.562-3.984-1.562c-1.626,0-3.028,0.446-4.017,1.562c-0.574,0.669-0.924,1.434-0.924,2.454
		c0,2.04,1.689,2.965,3.379,3.188c1.275,0.159,2.518,0.382,3.761,0.574c3.761,0.542,6.28,2.837,6.28,6.407
		C155.052,209.491,154.255,210.893,153.139,211.977z"/>
	<path fill="#E6E7E8" d="M163.782,214.049c-3.475,0-4.431-2.199-4.431-4.367v-9.658h-3.124v-2.327h3.124v-4.112l2.709-0.637v4.75
		h4.781v2.327h-4.781v9.34c0,1.562,0.669,2.199,2.168,2.199c1.147,0,2.772-0.287,2.772-0.287v2.327
		C166.269,213.794,165.28,214.049,163.782,214.049z"/>
	<path fill="#E6E7E8" d="M182.618,206.654h-11.411c0,1.466,0.574,3.06,1.562,4.048c0.733,0.733,1.722,1.148,2.965,1.148
		c1.275,0,2.327-0.351,2.996-1.052c0.446-0.446,0.733-0.893,0.956-1.753h2.646c-0.224,1.594-1.18,3.092-2.486,3.984
		c-1.147,0.765-2.582,1.211-4.112,1.211c-2.264,0-4.112-0.957-5.355-2.423c-1.339-1.562-2.008-3.697-2.008-5.993
		c0-1.944,0.351-3.666,1.243-5.164c1.147-1.944,3.283-3.379,6.088-3.379c2.072,0,3.729,0.797,4.909,2.072
		c1.307,1.435,2.072,3.506,2.04,5.674L182.618,206.654z M178.889,201.043c-0.669-0.893-1.753-1.466-3.188-1.466
		c-2.933,0-4.366,2.391-4.431,4.75h8.606C179.877,203.116,179.526,201.904,178.889,201.043z"/>
	<path fill="#E6E7E8" d="M193.452,200.215c-1.274,0-2.326,0.574-3.06,1.275c-1.307,1.243-1.467,3.475-1.467,5.164v7.172h-2.677
		v-16.129h2.391l0.223,2.837c0.829-1.977,2.773-2.933,4.813-2.933c0.414,0,0.86,0.032,1.274,0.096v2.646
		C194.473,200.247,193.931,200.215,193.452,200.215z"/>
	<path fill="#E6E7E8" d="M200.814,214.017c-2.359,0-3.379-1.403-3.379-3.953v-19.253h2.709v19.093c0,1.084,0.351,1.658,1.467,1.658
		c0.893,0,1.115-0.032,1.115-0.032v2.295C202.727,213.826,202.121,214.017,200.814,214.017z"/>
	<path fill="#E6E7E8" d="M205.657,193.999v-3.188h3.155v3.188H205.657z M205.849,213.826v-16.129h2.772v16.129H205.849z"/>
	<path fill="#E6E7E8" d="M223.92,213.826v-10.232c0-2.423-0.988-3.857-3.538-3.857c-1.562,0-2.805,1.02-3.506,2.486
		c-0.542,1.179-0.574,2.869-0.574,4.112v7.491h-2.709v-16.129h2.358l0.223,2.422c0.829-1.849,3.061-2.837,4.877-2.837
		c3.666,0,5.579,2.199,5.579,5.929v10.615H223.92L223.92,213.826z"/>
	<path fill="#E6E7E8" d="M243.68,219.467c-1.562,1.531-4.238,1.881-6.503,1.881c-2.136,0-4.559-0.318-6.12-1.881
		c-0.668-0.668-1.146-1.594-1.146-2.867c0-1.688,1.021-2.933,2.295-3.571c-1.084-0.415-1.881-1.466-1.881-2.709
		c0-1.435,0.925-2.55,2.136-3.124c-1.179-1.052-1.85-2.646-1.85-4.176c0-1.753,0.604-2.965,1.529-3.921
		c1.115-1.147,2.646-1.817,4.781-1.817c1.53,0,2.709,0.351,3.697,0.956c0.542-1.434,1.785-2.263,3.314-2.263
		c0.256,0,0.543,0.032,0.797,0.064v2.199c-0.158-0.032-0.383-0.032-0.604-0.032c-1.052,0-1.817,0.574-1.978,1.466
		c0.67,0.861,1.053,1.913,1.053,3.347c0,1.53-0.573,2.869-1.467,3.857c-1.051,1.147-2.678,1.913-4.812,1.913
		c-1.084,0-1.689-0.096-2.709-0.446c-0.605,0.191-1.371,0.669-1.371,1.434c0,1.403,1.402,1.594,2.424,1.594h3.188
		c1.912,0,4.048,0.383,5.321,1.689c0.767,0.765,1.274,1.817,1.274,3.156C245.05,217.619,244.443,218.703,243.68,219.467z
		 M238.133,213.667h-3.729c-1.084,0.351-2.041,1.307-2.041,2.55c0,0.733,0.256,1.276,0.671,1.69
		c1.052,1.051,2.899,1.114,4.303,1.114c1.371,0,3.379-0.127,4.399-1.147c0.414-0.414,0.668-0.956,0.668-1.657
		C242.404,213.826,240.077,213.667,238.133,213.667z M236.891,199.481c-2.199,0-3.666,1.499-3.666,3.539s1.371,3.602,3.666,3.602
		c2.199,0,3.666-1.562,3.666-3.602S239.186,199.481,236.891,199.481z"/>
</g>
</svg>
