<?xml version="1.0" encoding="utf-8"?>
<!-- Generator: Adobe Illustrator 16.0.0, SVG Export Plug-In . SVG Version: 6.00 Build 0)  -->
<!DOCTYPE svg PUBLIC "-//W3C//DTD SVG 1.1//EN" "http://www.w3.org/Graphics/SVG/1.1/DTD/svg11.dtd">
<svg version="1.1" id="Layer_1" xmlns="http://www.w3.org/2000/svg" xmlns:xlink="http://www.w3.org/1999/xlink" x="0px" y="0px"
	 width="197px" height="62px" viewBox="120.5 171.5 197 62" enable-background="new 120.5 171.5 197 62" xml:space="preserve">
<g>
	<path fill="#E6E7E8" d="M275.412,200.458h-2.405l-3.979-12.008h2.32l2.912,9.163l2.896-9.163h2.201L275.412,200.458z"/>
	<path fill="#E6E7E8" d="M290.143,199.256c-0.896,0.915-2.149,1.423-3.438,1.423s-2.489-0.423-3.404-1.338
		c-1.304-1.304-1.49-2.914-1.49-4.878c0-1.965,0.188-3.574,1.49-4.878c0.915-0.915,2.117-1.355,3.404-1.355s2.541,0.474,3.438,1.389
		c0.694,0.711,1.051,1.66,1.151,2.608h-2.235c-0.051-0.525-0.235-0.898-0.541-1.271c-0.391-0.491-1.066-0.745-1.812-0.745
		c-0.692,0-1.372,0.288-1.847,0.796c-0.829,0.864-0.829,2.354-0.829,3.456c0,1.101,0,2.591,0.829,3.455
		c0.475,0.508,1.15,0.796,1.847,0.796c0.745,0,1.423-0.271,1.812-0.762c0.306-0.373,0.49-0.796,0.541-1.321h2.235
		C291.191,197.579,290.837,198.544,290.143,199.256z"/>
</g>
<g>
	<polygon fill="#F37021" points="303.971,192.726 280.09,216.611 256.207,192.726 254.793,194.14 280.09,219.439 305.385,194.14 	
		"/>
</g>
</svg>
